<svg xmlns="http://www.w3.org/2000/svg" xmlns:xlink="http://www.w3.org/1999/xlink" width="840" height="581.04"><rect width="840" height="581.04" rx="5" ry="5" class="a"/><svg y="0%" x="0%"><circle cx="20" cy="20" r="6" fill="#ff5f58"/><circle cx="40" cy="20" r="6" fill="#ffbd2e"/><circle cx="60" cy="20" r="6" fill="#18c132"/></svg><svg height="521.04" viewBox="0 0 80 52.104" width="800" x="15" xmlns="http://www.w3.org/2000/svg" xmlns:xlink="http://www.w3.org/1999/xlink" y="50"><style>@keyframes k{0%{transform:translateX(0)}.11%{transform:translateX(-80px)}4.37%{transform:translateX(-160px)}5.47%{transform:translateX(-240px)}6.79%{transform:translateX(-320px)}7.39%{transform:translateX(-400px)}11.02%{transform:translateX(-480px)}16.25%{transform:translateX(-720px)}26.47%{transform:translateX(-800px)}27.49%{transform:translateX(-880px)}28.27%{transform:translateX(-960px)}29.01%{transform:translateX(-1040px)}31.73%{transform:translateX(-1120px)}35.22%{transform:translateX(-1200px)}36.12%{transform:translateX(-1280px)}36.91%{transform:translateX(-1360px)}37.82%{transform:translateX(-1440px)}42.34%{transform:translateX(-1520px)}43.68%{transform:translateX(-1600px)}44.48%{transform:translateX(-1680px)}45.64%{transform:translateX(-1760px)}46.73%{transform:translateX(-1840px)}49.24%{transform:translateX(-1920px)}49.64%{transform:translateX(-2000px)}50.9%{transform:translateX(-2080px)}53.54%{transform:translateX(-2160px)}54.39%{transform:translateX(-2240px)}54.85%{transform:translateX(-2320px)}62.29%{transform:translateX(-2400px)}65.92%{transform:translateX(-2480px)}74.27%{transform:translateX(-2560px)}75.18%{transform:translateX(-2640px)}76.16%{transform:translateX(-2720px)}76.9%{transform:translateX(-2800px)}87.12%{transform:translateX(-2880px)}89.91%{transform:translateX(-3120px)}96.87%{transform:translateX(-3200px)}98.13%{transform:translateX(-3280px)}98.65%{transform:translateX(-3360px)}99.25%{transform:translateX(-3440px)}to{transform:translateX(-3600px)}}.a{fill:#282d35}.f{fill:#a8cc8c;font-weight:700}.g{fill:#b9c0cb}.h{fill:#71bef2;font-weight:700}</style><g font-size="1.67" font-family="Monaco,Consolas,Menlo,'Bitstream Vera Sans Mono','Powerline Symbols',monospace"><defs><symbol id="1"><text y="1.67" class="f">alex@</text><text x="5.01" y="1.67" class="g">:</text><text x="6.012" y="1.67" class="h">~/projects/schema-script</text><text x="30.06" y="1.67" class="g">$</text></symbol><symbol id="2"><text y="1.67" class="f">alex@</text><text x="5.01" y="1.67" class="g">:</text><text x="6.012" y="1.67" class="h">~/projects/schema-script</text><text x="30.06" y="1.67" class="g">$</text><text x="32.064" y="1.67" class="g">c</text></symbol><symbol id="3"><text y="1.67" class="f">alex@</text><text x="5.01" y="1.67" class="g">:</text><text x="6.012" y="1.67" class="h">~/projects/schema-script</text><text x="30.06" y="1.67" class="g">$</text><text x="32.064" y="1.67" class="g">ca</text></symbol><symbol id="4"><text y="1.67" class="f">alex@</text><text x="5.01" y="1.67" class="g">:</text><text x="6.012" y="1.67" class="h">~/projects/schema-script</text><text x="30.06" y="1.67" class="g">$</text><text x="32.064" y="1.67" class="g">cat</text></symbol><symbol id="5"><text y="1.67" class="f">alex@</text><text x="5.01" y="1.67" class="g">:</text><text x="6.012" y="1.67" class="h">~/projects/schema-script</text><text x="30.06" y="1.67" class="g">$</text><text x="32.064" y="1.67" class="g">cat</text><text x="36.072" y="1.67" class="g">examples/required-properties/Geo.schema.json</text></symbol><symbol id="6"><text y="1.67" class="g">{</text></symbol><symbol id="7"><text x="2.004" y="1.67" class="g">&quot;$comment&quot;:</text><text x="14.028" y="1.67" class="g">&quot;+ts</text><text x="19.038" y="1.67" class="g">+iots</text><text x="25.05" y="1.67" class="g">+graphql&quot;,</text></symbol><symbol id="8"><text x="2.004" y="1.67" class="g">&quot;$id&quot;:</text><text x="9.018" y="1.67" class="g">&quot;https://example.com/geographical-location.schema.json&quot;,</text></symbol><symbol id="9"><text x="2.004" y="1.67" class="g">&quot;$schema&quot;:</text><text x="13.026" y="1.67" class="g">&quot;http://json-schema.org/draft-07/schema#&quot;,</text></symbol><symbol id="10"><text x="2.004" y="1.67" class="g">&quot;title&quot;:</text><text x="11.022" y="1.67" class="g">&quot;Longitude</text><text x="22.044" y="1.67" class="g">and</text><text x="26.052" y="1.67" class="g">Latitude</text><text x="35.07" y="1.67" class="g">Values&quot;,</text></symbol><symbol id="11"><text x="2.004" y="1.67" class="g">&quot;description&quot;:</text><text x="17.034" y="1.67" class="g">&quot;A</text><text x="20.04" y="1.67" class="g">geographical</text><text x="33.066" y="1.67" class="g">coordinate.&quot;,</text></symbol><symbol id="12"><text x="2.004" y="1.67" class="g">&quot;required&quot;:</text><text x="14.028" y="1.67" class="g">[&quot;latitude&quot;,</text><text x="27.054" y="1.67" class="g">&quot;longitude&quot;],</text></symbol><symbol id="13"><text x="2.004" y="1.67" class="g">&quot;type&quot;:</text><text x="10.02" y="1.67" class="g">&quot;object&quot;,</text></symbol><symbol id="14"><text x="2.004" y="1.67" class="g">&quot;properties&quot;:</text><text x="16.032" y="1.67" class="g">{</text></symbol><symbol id="15"><text x="4.008" y="1.67" class="g">&quot;latitude&quot;:</text><text x="16.032" y="1.67" class="g">{</text></symbol><symbol id="16"><text x="6.012" y="1.67" class="g">&quot;type&quot;:</text><text x="14.028" y="1.67" class="g">&quot;number&quot;,</text></symbol><symbol id="17"><text x="6.012" y="1.67" class="g">&quot;minimum&quot;:</text><text x="17.034" y="1.67" class="g">-90,</text></symbol><symbol id="18"><text x="6.012" y="1.67" class="g">&quot;maximum&quot;:</text><text x="17.034" y="1.67" class="g">90</text></symbol><symbol id="19"><text x="4.008" y="1.67" class="g">},</text></symbol><symbol id="20"><text x="4.008" y="1.67" class="g">&quot;longitude&quot;:</text><text x="17.034" y="1.67" class="g">{</text></symbol><symbol id="21"><text x="6.012" y="1.67" class="g">&quot;minimum&quot;:</text><text x="17.034" y="1.67" class="g">-180,</text></symbol><symbol id="22"><text x="6.012" y="1.67" class="g">&quot;maximum&quot;:</text><text x="17.034" y="1.67" class="g">180</text></symbol><symbol id="23"><text x="4.008" y="1.67" class="g">}</text></symbol><symbol id="24"><text x="2.004" y="1.67" class="g">}</text></symbol><symbol id="25"><text y="1.67" class="g">}</text></symbol><symbol id="26"><text y="1.67" class="f">alex@</text><text x="5.01" y="1.67" class="g">:</text><text x="6.012" y="1.67" class="h">~/projects/schema-script</text><text x="30.06" y="1.67" class="g">$</text><text x="32.064" y="1.67" class="g">schema-script</text><text x="46.092" y="1.67" class="g">./examples/required-properties/</text></symbol><symbol id="27"><text y="1.67" class="f">alex@</text><text x="5.01" y="1.67" class="g">:</text><text x="6.012" y="1.67" class="h">~/projects/schema-script</text><text x="30.06" y="1.67" class="g">$</text><text x="32.064" y="1.67" class="g">cat</text><text x="36.072" y="1.67" class="g">examples/required-properties/Geo.ts</text></symbol><symbol id="28"><text y="1.67" class="g">//</text><text x="3.006" y="1.67" class="g">auto-generated</text><text x="18.036" y="1.67" class="g">by</text><text x="21.042" y="1.67" class="g">json-schema-preprocessor.</text><text x="47.094" y="1.67" class="g">DO</text><text x="50.1" y="1.67" class="g">NOT</text><text x="54.108" y="1.67" class="g">MODIFY</text><text x="61.122" y="1.67" class="g">BY</text><text x="64.128" y="1.67" class="g">HAND.</text></symbol><symbol id="29"><text y="1.67" class="g">import</text><text x="7.014" y="1.67" class="g">*</text><text x="9.018" y="1.67" class="g">as</text><text x="12.024" y="1.67" class="g">t</text><text x="14.028" y="1.67" class="g">from</text><text x="19.038" y="1.67" class="g">&quot;io-ts&quot;;</text></symbol><symbol id="30"><text y="1.67" class="g">export</text><text x="7.014" y="1.67" class="g">interface</text><text x="17.034" y="1.67" class="g">Geo</text><text x="21.042" y="1.67" class="g">{</text></symbol><symbol id="31"><text x="2.004" y="1.67" class="g">latitude:</text><text x="12.024" y="1.67" class="g">number;</text></symbol><symbol id="32"><text x="2.004" y="1.67" class="g">longitude:</text><text x="13.026" y="1.67" class="g">number;</text></symbol><symbol id="33"><text y="1.67" class="g">export</text><text x="7.014" y="1.67" class="g">const</text><text x="13.026" y="1.67" class="g">tGeo</text><text x="18.036" y="1.67" class="g">=</text><text x="20.04" y="1.67" class="g">t.interface({</text></symbol><symbol id="34"><text x="2.004" y="1.67" class="g">latitude:</text><text x="12.024" y="1.67" class="g">t.number,</text></symbol><symbol id="35"><text x="2.004" y="1.67" class="g">longitude:</text><text x="13.026" y="1.67" class="g">t.number,</text></symbol><symbol id="36"><text y="1.67" class="g">});</text></symbol><symbol id="37"><text y="1.67" class="f">alex@</text><text x="5.01" y="1.67" class="g">:</text><text x="6.012" y="1.67" class="h">~/projects/schema-script</text><text x="30.06" y="1.67" class="g">$</text><text x="32.064" y="1.67" class="g">exit</text></symbol><symbol id="a"><path fill="transparent" d="M0 0h80v24H0z"/></symbol><symbol id="b"><path fill="#6f7683" d="M0 0h1.102v2.171H0z"/></symbol></defs><path class="a" d="M0 0h80v52.104H0z"/><g style="animation-duration:19.563855999999998s;animation-iteration-count:infinite;animation-name:k;animation-timing-function:steps(1,end)"><svg width="3680"><svg><use xlink:href="#a"/><use xlink:href="#b" x="-.004"/></svg><svg x="80"><use xlink:href="#a"/><use xlink:href="#b" x="31.996"/><use xlink:href="#1"/></svg><svg x="160"><use xlink:href="#a"/><use xlink:href="#b" x="32.996"/><use xlink:href="#2"/></svg><svg x="240"><use xlink:href="#a"/><use xlink:href="#b" x="33.996"/><use xlink:href="#3"/></svg><svg x="320"><use xlink:href="#a"/><use xlink:href="#b" x="34.996"/><use xlink:href="#4"/></svg><svg x="400"><use xlink:href="#a"/><use xlink:href="#b" x="35.996"/><use xlink:href="#4"/></svg><svg x="480"><use xlink:href="#a"/><use xlink:href="#b" x="-.004" y="2.146"/><use xlink:href="#5"/></svg><svg x="560"><use xlink:href="#a"/><use xlink:href="#b" x="-.004" y="2.146"/><use xlink:href="#5"/></svg><svg x="640"><use xlink:href="#a"/><use xlink:href="#b" x="-.004" y="47.737"/><use xlink:href="#5"/><use xlink:href="#6" y="2.171"/><use xlink:href="#7" y="4.342"/><use xlink:href="#8" y="6.513"/><use xlink:href="#9" y="8.684"/><use xlink:href="#10" y="10.855"/><use xlink:href="#11" y="13.026"/><use xlink:href="#12" y="15.197"/><use xlink:href="#13" y="17.368"/><use xlink:href="#14" y="19.539"/><use xlink:href="#15" y="21.71"/><use xlink:href="#16" y="23.881"/><use xlink:href="#17" y="26.052"/><use xlink:href="#18" y="28.223"/><use xlink:href="#19" y="30.394"/><use xlink:href="#20" y="32.565"/><use xlink:href="#16" y="34.736"/><use xlink:href="#21" y="36.907"/><use xlink:href="#22" y="39.078"/><use xlink:href="#23" y="41.249"/><use xlink:href="#24" y="43.42"/><use xlink:href="#25" y="45.591"/></svg><svg x="720"><use xlink:href="#a"/><use xlink:href="#b" x="31.996" y="47.737"/><use xlink:href="#5"/><use xlink:href="#6" y="2.171"/><use xlink:href="#7" y="4.342"/><use xlink:href="#8" y="6.513"/><use xlink:href="#9" y="8.684"/><use xlink:href="#10" y="10.855"/><use xlink:href="#11" y="13.026"/><use xlink:href="#12" y="15.197"/><use xlink:href="#13" y="17.368"/><use xlink:href="#14" y="19.539"/><use xlink:href="#15" y="21.71"/><use xlink:href="#16" y="23.881"/><use xlink:href="#17" y="26.052"/><use xlink:href="#18" y="28.223"/><use xlink:href="#19" y="30.394"/><use xlink:href="#20" y="32.565"/><use xlink:href="#16" y="34.736"/><use xlink:href="#21" y="36.907"/><use xlink:href="#22" y="39.078"/><use xlink:href="#23" y="41.249"/><use xlink:href="#24" y="43.42"/><use xlink:href="#25" y="45.591"/><use xlink:href="#1" y="47.762"/></svg><svg x="800"><use xlink:href="#a"/><use xlink:href="#b" x="32.996" y="47.737"/><use xlink:href="#5"/><use xlink:href="#6" y="2.171"/><use xlink:href="#7" y="4.342"/><use xlink:href="#8" y="6.513"/><use xlink:href="#9" y="8.684"/><use xlink:href="#10" y="10.855"/><use xlink:href="#11" y="13.026"/><use xlink:href="#12" y="15.197"/><use xlink:href="#13" y="17.368"/><use xlink:href="#14" y="19.539"/><use xlink:href="#15" y="21.71"/><use xlink:href="#16" y="23.881"/><use xlink:href="#17" y="26.052"/><use xlink:href="#18" y="28.223"/><use xlink:href="#19" y="30.394"/><use xlink:href="#20" y="32.565"/><use xlink:href="#16" y="34.736"/><use xlink:href="#21" y="36.907"/><use xlink:href="#22" y="39.078"/><use xlink:href="#23" y="41.249"/><use xlink:href="#24" y="43.42"/><use xlink:href="#25" y="45.591"/><text y="49.432" class="f">alex@</text><text x="5.01" y="49.432" class="g">:</text><text x="6.012" y="49.432" class="h">~/projects/schema-script</text><text x="30.06" y="49.432" class="g">$</text><text x="32.064" y="49.432" class="g">s</text></svg><svg x="880"><use xlink:href="#a"/><use xlink:href="#b" x="33.996" y="47.737"/><use xlink:href="#5"/><use xlink:href="#6" y="2.171"/><use xlink:href="#7" y="4.342"/><use xlink:href="#8" y="6.513"/><use xlink:href="#9" y="8.684"/><use xlink:href="#10" y="10.855"/><use xlink:href="#11" y="13.026"/><use xlink:href="#12" y="15.197"/><use xlink:href="#13" y="17.368"/><use xlink:href="#14" y="19.539"/><use xlink:href="#15" y="21.71"/><use xlink:href="#16" y="23.881"/><use xlink:href="#17" y="26.052"/><use xlink:href="#18" y="28.223"/><use xlink:href="#19" y="30.394"/><use xlink:href="#20" y="32.565"/><use xlink:href="#16" y="34.736"/><use xlink:href="#21" y="36.907"/><use xlink:href="#22" y="39.078"/><use xlink:href="#23" y="41.249"/><use xlink:href="#24" y="43.42"/><use xlink:href="#25" y="45.591"/><text y="49.432" class="f">alex@</text><text x="5.01" y="49.432" class="g">:</text><text x="6.012" y="49.432" class="h">~/projects/schema-script</text><text x="30.06" y="49.432" class="g">$</text><text x="32.064" y="49.432" class="g">sc</text></svg><svg x="960"><use xlink:href="#a"/><use xlink:href="#b" x="34.996" y="47.737"/><use xlink:href="#5"/><use xlink:href="#6" y="2.171"/><use xlink:href="#7" y="4.342"/><use xlink:href="#8" y="6.513"/><use xlink:href="#9" y="8.684"/><use xlink:href="#10" y="10.855"/><use xlink:href="#11" y="13.026"/><use xlink:href="#12" y="15.197"/><use xlink:href="#13" y="17.368"/><use xlink:href="#14" y="19.539"/><use xlink:href="#15" y="21.71"/><use xlink:href="#16" y="23.881"/><use xlink:href="#17" y="26.052"/><use xlink:href="#18" y="28.223"/><use xlink:href="#19" y="30.394"/><use xlink:href="#20" y="32.565"/><use xlink:href="#16" y="34.736"/><use xlink:href="#21" y="36.907"/><use xlink:href="#22" y="39.078"/><use xlink:href="#23" y="41.249"/><use xlink:href="#24" y="43.42"/><use xlink:href="#25" y="45.591"/><text y="49.432" class="f">alex@</text><text x="5.01" y="49.432" class="g">:</text><text x="6.012" y="49.432" class="h">~/projects/schema-script</text><text x="30.06" y="49.432" class="g">$</text><text x="32.064" y="49.432" class="g">sch</text></svg><svg x="1040"><use xlink:href="#a"/><use xlink:href="#b" x="35.996" y="47.737"/><use xlink:href="#5"/><use xlink:href="#6" y="2.171"/><use xlink:href="#7" y="4.342"/><use xlink:href="#8" y="6.513"/><use xlink:href="#9" y="8.684"/><use xlink:href="#10" y="10.855"/><use xlink:href="#11" y="13.026"/><use xlink:href="#12" y="15.197"/><use xlink:href="#13" y="17.368"/><use xlink:href="#14" y="19.539"/><use xlink:href="#15" y="21.71"/><use xlink:href="#16" y="23.881"/><use xlink:href="#17" y="26.052"/><use xlink:href="#18" y="28.223"/><use xlink:href="#19" y="30.394"/><use xlink:href="#20" y="32.565"/><use xlink:href="#16" y="34.736"/><use xlink:href="#21" y="36.907"/><use xlink:href="#22" y="39.078"/><use xlink:href="#23" y="41.249"/><use xlink:href="#24" y="43.42"/><use xlink:href="#25" y="45.591"/><text y="49.432" class="f">alex@</text><text x="5.01" y="49.432" class="g">:</text><text x="6.012" y="49.432" class="h">~/projects/schema-script</text><text x="30.06" y="49.432" class="g">$</text><text x="32.064" y="49.432" class="g">sche</text></svg><svg x="1120"><use xlink:href="#a"/><use xlink:href="#b" x="37.996" y="47.737"/><use xlink:href="#5"/><use xlink:href="#6" y="2.171"/><use xlink:href="#7" y="4.342"/><use xlink:href="#8" y="6.513"/><use xlink:href="#9" y="8.684"/><use xlink:href="#10" y="10.855"/><use xlink:href="#11" y="13.026"/><use xlink:href="#12" y="15.197"/><use xlink:href="#13" y="17.368"/><use xlink:href="#14" y="19.539"/><use xlink:href="#15" y="21.71"/><use xlink:href="#16" y="23.881"/><use xlink:href="#17" y="26.052"/><use xlink:href="#18" y="28.223"/><use xlink:href="#19" y="30.394"/><use xlink:href="#20" y="32.565"/><use xlink:href="#16" y="34.736"/><use xlink:href="#21" y="36.907"/><use xlink:href="#22" y="39.078"/><use xlink:href="#23" y="41.249"/><use xlink:href="#24" y="43.42"/><use xlink:href="#25" y="45.591"/><text y="49.432" class="f">alex@</text><text x="5.01" y="49.432" class="g">:</text><text x="6.012" y="49.432" class="h">~/projects/schema-script</text><text x="30.06" y="49.432" class="g">$</text><text x="32.064" y="49.432" class="g">schema</text></svg><svg x="1200"><use xlink:href="#a"/><use xlink:href="#b" x="38.996" y="47.737"/><use xlink:href="#5"/><use xlink:href="#6" y="2.171"/><use xlink:href="#7" y="4.342"/><use xlink:href="#8" y="6.513"/><use xlink:href="#9" y="8.684"/><use xlink:href="#10" y="10.855"/><use xlink:href="#11" y="13.026"/><use xlink:href="#12" y="15.197"/><use xlink:href="#13" y="17.368"/><use xlink:href="#14" y="19.539"/><use xlink:href="#15" y="21.71"/><use xlink:href="#16" y="23.881"/><use xlink:href="#17" y="26.052"/><use xlink:href="#18" y="28.223"/><use xlink:href="#19" y="30.394"/><use xlink:href="#20" y="32.565"/><use xlink:href="#16" y="34.736"/><use xlink:href="#21" y="36.907"/><use xlink:href="#22" y="39.078"/><use xlink:href="#23" y="41.249"/><use xlink:href="#24" y="43.42"/><use xlink:href="#25" y="45.591"/><text y="49.432" class="f">alex@</text><text x="5.01" y="49.432" class="g">:</text><text x="6.012" y="49.432" class="h">~/projects/schema-script</text><text x="30.06" y="49.432" class="g">$</text><text x="32.064" y="49.432" class="g">schema-</text></svg><svg x="1280"><use xlink:href="#a"/><use xlink:href="#b" x="39.996" y="47.737"/><use xlink:href="#5"/><use xlink:href="#6" y="2.171"/><use xlink:href="#7" y="4.342"/><use xlink:href="#8" y="6.513"/><use xlink:href="#9" y="8.684"/><use xlink:href="#10" y="10.855"/><use xlink:href="#11" y="13.026"/><use xlink:href="#12" y="15.197"/><use xlink:href="#13" y="17.368"/><use xlink:href="#14" y="19.539"/><use xlink:href="#15" y="21.71"/><use xlink:href="#16" y="23.881"/><use xlink:href="#17" y="26.052"/><use xlink:href="#18" y="28.223"/><use xlink:href="#19" y="30.394"/><use xlink:href="#20" y="32.565"/><use xlink:href="#16" y="34.736"/><use xlink:href="#21" y="36.907"/><use xlink:href="#22" y="39.078"/><use xlink:href="#23" y="41.249"/><use xlink:href="#24" y="43.42"/><use xlink:href="#25" y="45.591"/><text y="49.432" class="f">alex@</text><text x="5.01" y="49.432" class="g">:</text><text x="6.012" y="49.432" class="h">~/projects/schema-script</text><text x="30.06" y="49.432" class="g">$</text><text x="32.064" y="49.432" class="g">schema-s</text></svg><svg x="1360"><use xlink:href="#a"/><use xlink:href="#b" x="40.996" y="47.737"/><use xlink:href="#5"/><use xlink:href="#6" y="2.171"/><use xlink:href="#7" y="4.342"/><use xlink:href="#8" y="6.513"/><use xlink:href="#9" y="8.684"/><use xlink:href="#10" y="10.855"/><use xlink:href="#11" y="13.026"/><use xlink:href="#12" y="15.197"/><use xlink:href="#13" y="17.368"/><use xlink:href="#14" y="19.539"/><use xlink:href="#15" y="21.71"/><use xlink:href="#16" y="23.881"/><use xlink:href="#17" y="26.052"/><use xlink:href="#18" y="28.223"/><use xlink:href="#19" y="30.394"/><use xlink:href="#20" y="32.565"/><use xlink:href="#16" y="34.736"/><use xlink:href="#21" y="36.907"/><use xlink:href="#22" y="39.078"/><use xlink:href="#23" y="41.249"/><use xlink:href="#24" y="43.42"/><use xlink:href="#25" y="45.591"/><text y="49.432" class="f">alex@</text><text x="5.01" y="49.432" class="g">:</text><text x="6.012" y="49.432" class="h">~/projects/schema-script</text><text x="30.06" y="49.432" class="g">$</text><text x="32.064" y="49.432" class="g">schema-sc</text></svg><svg x="1440"><use xlink:href="#a"/><use xlink:href="#b" x="45.996" y="47.737"/><use xlink:href="#5"/><use xlink:href="#6" y="2.171"/><use xlink:href="#7" y="4.342"/><use xlink:href="#8" y="6.513"/><use xlink:href="#9" y="8.684"/><use xlink:href="#10" y="10.855"/><use xlink:href="#11" y="13.026"/><use xlink:href="#12" y="15.197"/><use xlink:href="#13" y="17.368"/><use xlink:href="#14" y="19.539"/><use xlink:href="#15" y="21.71"/><use xlink:href="#16" y="23.881"/><use xlink:href="#17" y="26.052"/><use xlink:href="#18" y="28.223"/><use xlink:href="#19" y="30.394"/><use xlink:href="#20" y="32.565"/><use xlink:href="#16" y="34.736"/><use xlink:href="#21" y="36.907"/><use xlink:href="#22" y="39.078"/><use xlink:href="#23" y="41.249"/><use xlink:href="#24" y="43.42"/><use xlink:href="#25" y="45.591"/><text y="49.432" class="f">alex@</text><text x="5.01" y="49.432" class="g">:</text><text x="6.012" y="49.432" class="h">~/projects/schema-script</text><text x="30.06" y="49.432" class="g">$</text><text x="32.064" y="49.432" class="g">schema-script</text></svg><svg x="1520"><use xlink:href="#a"/><use xlink:href="#b" x="46.996" y="47.737"/><use xlink:href="#5"/><use xlink:href="#6" y="2.171"/><use xlink:href="#7" y="4.342"/><use xlink:href="#8" y="6.513"/><use xlink:href="#9" y="8.684"/><use xlink:href="#10" y="10.855"/><use xlink:href="#11" y="13.026"/><use xlink:href="#12" y="15.197"/><use xlink:href="#13" y="17.368"/><use xlink:href="#14" y="19.539"/><use xlink:href="#15" y="21.71"/><use xlink:href="#16" y="23.881"/><use xlink:href="#17" y="26.052"/><use xlink:href="#18" y="28.223"/><use xlink:href="#19" y="30.394"/><use xlink:href="#20" y="32.565"/><use xlink:href="#16" y="34.736"/><use xlink:href="#21" y="36.907"/><use xlink:href="#22" y="39.078"/><use xlink:href="#23" y="41.249"/><use xlink:href="#24" y="43.42"/><use xlink:href="#25" y="45.591"/><text y="49.432" class="f">alex@</text><text x="5.01" y="49.432" class="g">:</text><text x="6.012" y="49.432" class="h">~/projects/schema-script</text><text x="30.06" y="49.432" class="g">$</text><text x="32.064" y="49.432" class="g">schema-script</text><text x="46.092" y="49.432" class="g">.</text></svg><svg x="1600"><use xlink:href="#a"/><use xlink:href="#b" x="47.996" y="47.737"/><use xlink:href="#5"/><use xlink:href="#6" y="2.171"/><use xlink:href="#7" y="4.342"/><use xlink:href="#8" y="6.513"/><use xlink:href="#9" y="8.684"/><use xlink:href="#10" y="10.855"/><use xlink:href="#11" y="13.026"/><use xlink:href="#12" y="15.197"/><use xlink:href="#13" y="17.368"/><use xlink:href="#14" y="19.539"/><use xlink:href="#15" y="21.71"/><use xlink:href="#16" y="23.881"/><use xlink:href="#17" y="26.052"/><use xlink:href="#18" y="28.223"/><use xlink:href="#19" y="30.394"/><use xlink:href="#20" y="32.565"/><use xlink:href="#16" y="34.736"/><use xlink:href="#21" y="36.907"/><use xlink:href="#22" y="39.078"/><use xlink:href="#23" y="41.249"/><use xlink:href="#24" y="43.42"/><use xlink:href="#25" y="45.591"/><text y="49.432" class="f">alex@</text><text x="5.01" y="49.432" class="g">:</text><text x="6.012" y="49.432" class="h">~/projects/schema-script</text><text x="30.06" y="49.432" class="g">$</text><text x="32.064" y="49.432" class="g">schema-script</text><text x="46.092" y="49.432" class="g">./</text></svg><svg x="1680"><use xlink:href="#a"/><use xlink:href="#b" x="48.996" y="47.737"/><use xlink:href="#5"/><use xlink:href="#6" y="2.171"/><use xlink:href="#7" y="4.342"/><use xlink:href="#8" y="6.513"/><use xlink:href="#9" y="8.684"/><use xlink:href="#10" y="10.855"/><use xlink:href="#11" y="13.026"/><use xlink:href="#12" y="15.197"/><use xlink:href="#13" y="17.368"/><use xlink:href="#14" y="19.539"/><use xlink:href="#15" y="21.71"/><use xlink:href="#16" y="23.881"/><use xlink:href="#17" y="26.052"/><use xlink:href="#18" y="28.223"/><use xlink:href="#19" y="30.394"/><use xlink:href="#20" y="32.565"/><use xlink:href="#16" y="34.736"/><use xlink:href="#21" y="36.907"/><use xlink:href="#22" y="39.078"/><use xlink:href="#23" y="41.249"/><use xlink:href="#24" y="43.42"/><use xlink:href="#25" y="45.591"/><text y="49.432" class="f">alex@</text><text x="5.01" y="49.432" class="g">:</text><text x="6.012" y="49.432" class="h">~/projects/schema-script</text><text x="30.06" y="49.432" class="g">$</text><text x="32.064" y="49.432" class="g">schema-script</text><text x="46.092" y="49.432" class="g">./e</text></svg><svg x="1760"><use xlink:href="#a"/><use xlink:href="#b" x="49.996" y="47.737"/><use xlink:href="#5"/><use xlink:href="#6" y="2.171"/><use xlink:href="#7" y="4.342"/><use xlink:href="#8" y="6.513"/><use xlink:href="#9" y="8.684"/><use xlink:href="#10" y="10.855"/><use xlink:href="#11" y="13.026"/><use xlink:href="#12" y="15.197"/><use xlink:href="#13" y="17.368"/><use xlink:href="#14" y="19.539"/><use xlink:href="#15" y="21.71"/><use xlink:href="#16" y="23.881"/><use xlink:href="#17" y="26.052"/><use xlink:href="#18" y="28.223"/><use xlink:href="#19" y="30.394"/><use xlink:href="#20" y="32.565"/><use xlink:href="#16" y="34.736"/><use xlink:href="#21" y="36.907"/><use xlink:href="#22" y="39.078"/><use xlink:href="#23" y="41.249"/><use xlink:href="#24" y="43.42"/><use xlink:href="#25" y="45.591"/><text y="49.432" class="f">alex@</text><text x="5.01" y="49.432" class="g">:</text><text x="6.012" y="49.432" class="h">~/projects/schema-script</text><text x="30.06" y="49.432" class="g">$</text><text x="32.064" y="49.432" class="g">schema-script</text><text x="46.092" y="49.432" class="g">./ex</text></svg><svg x="1840"><use xlink:href="#a"/><use xlink:href="#b" x="56.996" y="47.737"/><use xlink:href="#5"/><use xlink:href="#6" y="2.171"/><use xlink:href="#7" y="4.342"/><use xlink:href="#8" y="6.513"/><use xlink:href="#9" y="8.684"/><use xlink:href="#10" y="10.855"/><use xlink:href="#11" y="13.026"/><use xlink:href="#12" y="15.197"/><use xlink:href="#13" y="17.368"/><use xlink:href="#14" y="19.539"/><use xlink:href="#15" y="21.71"/><use xlink:href="#16" y="23.881"/><use xlink:href="#17" y="26.052"/><use xlink:href="#18" y="28.223"/><use xlink:href="#19" y="30.394"/><use xlink:href="#20" y="32.565"/><use xlink:href="#16" y="34.736"/><use xlink:href="#21" y="36.907"/><use xlink:href="#22" y="39.078"/><use xlink:href="#23" y="41.249"/><use xlink:href="#24" y="43.42"/><use xlink:href="#25" y="45.591"/><text y="49.432" class="f">alex@</text><text x="5.01" y="49.432" class="g">:</text><text x="6.012" y="49.432" class="h">~/projects/schema-script</text><text x="30.06" y="49.432" class="g">$</text><text x="32.064" y="49.432" class="g">schema-script</text><text x="46.092" y="49.432" class="g">./examples/</text></svg><svg x="1920"><use xlink:href="#a"/><use xlink:href="#b" x="57.996" y="47.737"/><use xlink:href="#5"/><use xlink:href="#6" y="2.171"/><use xlink:href="#7" y="4.342"/><use xlink:href="#8" y="6.513"/><use xlink:href="#9" y="8.684"/><use xlink:href="#10" y="10.855"/><use xlink:href="#11" y="13.026"/><use xlink:href="#12" y="15.197"/><use xlink:href="#13" y="17.368"/><use xlink:href="#14" y="19.539"/><use xlink:href="#15" y="21.71"/><use xlink:href="#16" y="23.881"/><use xlink:href="#17" y="26.052"/><use xlink:href="#18" y="28.223"/><use xlink:href="#19" y="30.394"/><use xlink:href="#20" y="32.565"/><use xlink:href="#16" y="34.736"/><use xlink:href="#21" y="36.907"/><use xlink:href="#22" y="39.078"/><use xlink:href="#23" y="41.249"/><use xlink:href="#24" y="43.42"/><use xlink:href="#25" y="45.591"/><text y="49.432" class="f">alex@</text><text x="5.01" y="49.432" class="g">:</text><text x="6.012" y="49.432" class="h">~/projects/schema-script</text><text x="30.06" y="49.432" class="g">$</text><text x="32.064" y="49.432" class="g">schema-script</text><text x="46.092" y="49.432" class="g">./examples/r</text></svg><svg x="2000"><use xlink:href="#a"/><use xlink:href="#b" x="58.996" y="47.737"/><use xlink:href="#5"/><use xlink:href="#6" y="2.171"/><use xlink:href="#7" y="4.342"/><use xlink:href="#8" y="6.513"/><use xlink:href="#9" y="8.684"/><use xlink:href="#10" y="10.855"/><use xlink:href="#11" y="13.026"/><use xlink:href="#12" y="15.197"/><use xlink:href="#13" y="17.368"/><use xlink:href="#14" y="19.539"/><use xlink:href="#15" y="21.71"/><use xlink:href="#16" y="23.881"/><use xlink:href="#17" y="26.052"/><use xlink:href="#18" y="28.223"/><use xlink:href="#19" y="30.394"/><use xlink:href="#20" y="32.565"/><use xlink:href="#16" y="34.736"/><use xlink:href="#21" y="36.907"/><use xlink:href="#22" y="39.078"/><use xlink:href="#23" y="41.249"/><use xlink:href="#24" y="43.42"/><use xlink:href="#25" y="45.591"/><text y="49.432" class="f">alex@</text><text x="5.01" y="49.432" class="g">:</text><text x="6.012" y="49.432" class="h">~/projects/schema-script</text><text x="30.06" y="49.432" class="g">$</text><text x="32.064" y="49.432" class="g">schema-script</text><text x="46.092" y="49.432" class="g">./examples/re</text></svg><svg x="2080"><use xlink:href="#a"/><use xlink:href="#b" x="59.996" y="47.737"/><use xlink:href="#5"/><use xlink:href="#6" y="2.171"/><use xlink:href="#7" y="4.342"/><use xlink:href="#8" y="6.513"/><use xlink:href="#9" y="8.684"/><use xlink:href="#10" y="10.855"/><use xlink:href="#11" y="13.026"/><use xlink:href="#12" y="15.197"/><use xlink:href="#13" y="17.368"/><use xlink:href="#14" y="19.539"/><use xlink:href="#15" y="21.71"/><use xlink:href="#16" y="23.881"/><use xlink:href="#17" y="26.052"/><use xlink:href="#18" y="28.223"/><use xlink:href="#19" y="30.394"/><use xlink:href="#20" y="32.565"/><use xlink:href="#16" y="34.736"/><use xlink:href="#21" y="36.907"/><use xlink:href="#22" y="39.078"/><use xlink:href="#23" y="41.249"/><use xlink:href="#24" y="43.42"/><use xlink:href="#25" y="45.591"/><text y="49.432" class="f">alex@</text><text x="5.01" y="49.432" class="g">:</text><text x="6.012" y="49.432" class="h">~/projects/schema-script</text><text x="30.06" y="49.432" class="g">$</text><text x="32.064" y="49.432" class="g">schema-script</text><text x="46.092" y="49.432" class="g">./examples/req</text></svg><svg x="2160"><use xlink:href="#a"/><use xlink:href="#b" x="60.996" y="47.737"/><use xlink:href="#5"/><use xlink:href="#6" y="2.171"/><use xlink:href="#7" y="4.342"/><use xlink:href="#8" y="6.513"/><use xlink:href="#9" y="8.684"/><use xlink:href="#10" y="10.855"/><use xlink:href="#11" y="13.026"/><use xlink:href="#12" y="15.197"/><use xlink:href="#13" y="17.368"/><use xlink:href="#14" y="19.539"/><use xlink:href="#15" y="21.71"/><use xlink:href="#16" y="23.881"/><use xlink:href="#17" y="26.052"/><use xlink:href="#18" y="28.223"/><use xlink:href="#19" y="30.394"/><use xlink:href="#20" y="32.565"/><use xlink:href="#16" y="34.736"/><use xlink:href="#21" y="36.907"/><use xlink:href="#22" y="39.078"/><use xlink:href="#23" y="41.249"/><use xlink:href="#24" y="43.42"/><use xlink:href="#25" y="45.591"/><text y="49.432" class="f">alex@</text><text x="5.01" y="49.432" class="g">:</text><text x="6.012" y="49.432" class="h">~/projects/schema-script</text><text x="30.06" y="49.432" class="g">$</text><text x="32.064" y="49.432" class="g">schema-script</text><text x="46.092" y="49.432" class="g">./examples/requ</text></svg><svg x="2240"><use xlink:href="#a"/><use xlink:href="#b" x="61.996" y="47.737"/><use xlink:href="#5"/><use xlink:href="#6" y="2.171"/><use xlink:href="#7" y="4.342"/><use xlink:href="#8" y="6.513"/><use xlink:href="#9" y="8.684"/><use xlink:href="#10" y="10.855"/><use xlink:href="#11" y="13.026"/><use xlink:href="#12" y="15.197"/><use xlink:href="#13" y="17.368"/><use xlink:href="#14" y="19.539"/><use xlink:href="#15" y="21.71"/><use xlink:href="#16" y="23.881"/><use xlink:href="#17" y="26.052"/><use xlink:href="#18" y="28.223"/><use xlink:href="#19" y="30.394"/><use xlink:href="#20" y="32.565"/><use xlink:href="#16" y="34.736"/><use xlink:href="#21" y="36.907"/><use xlink:href="#22" y="39.078"/><use xlink:href="#23" y="41.249"/><use xlink:href="#24" y="43.42"/><use xlink:href="#25" y="45.591"/><text y="49.432" class="f">alex@</text><text x="5.01" y="49.432" class="g">:</text><text x="6.012" y="49.432" class="h">~/projects/schema-script</text><text x="30.06" y="49.432" class="g">$</text><text x="32.064" y="49.432" class="g">schema-script</text><text x="46.092" y="49.432" class="g">./examples/requi</text></svg><svg x="2320"><use xlink:href="#a"/><use xlink:href="#b" x="76.996" y="47.737"/><use xlink:href="#5"/><use xlink:href="#6" y="2.171"/><use xlink:href="#7" y="4.342"/><use xlink:href="#8" y="6.513"/><use xlink:href="#9" y="8.684"/><use xlink:href="#10" y="10.855"/><use xlink:href="#11" y="13.026"/><use xlink:href="#12" y="15.197"/><use xlink:href="#13" y="17.368"/><use xlink:href="#14" y="19.539"/><use xlink:href="#15" y="21.71"/><use xlink:href="#16" y="23.881"/><use xlink:href="#17" y="26.052"/><use xlink:href="#18" y="28.223"/><use xlink:href="#19" y="30.394"/><use xlink:href="#20" y="32.565"/><use xlink:href="#16" y="34.736"/><use xlink:href="#21" y="36.907"/><use xlink:href="#22" y="39.078"/><use xlink:href="#23" y="41.249"/><use xlink:href="#24" y="43.42"/><use xlink:href="#25" y="45.591"/><use xlink:href="#26" y="47.762"/></svg><svg x="2400"><use xlink:href="#a"/><use xlink:href="#b" x="-.004" y="49.908"/><use xlink:href="#5"/><use xlink:href="#6" y="2.171"/><use xlink:href="#7" y="4.342"/><use xlink:href="#8" y="6.513"/><use xlink:href="#9" y="8.684"/><use xlink:href="#10" y="10.855"/><use xlink:href="#11" y="13.026"/><use xlink:href="#12" y="15.197"/><use xlink:href="#13" y="17.368"/><use xlink:href="#14" y="19.539"/><use xlink:href="#15" y="21.71"/><use xlink:href="#16" y="23.881"/><use xlink:href="#17" y="26.052"/><use xlink:href="#18" y="28.223"/><use xlink:href="#19" y="30.394"/><use xlink:href="#20" y="32.565"/><use xlink:href="#16" y="34.736"/><use xlink:href="#21" y="36.907"/><use xlink:href="#22" y="39.078"/><use xlink:href="#23" y="41.249"/><use xlink:href="#24" y="43.42"/><use xlink:href="#25" y="45.591"/><use xlink:href="#26" y="47.762"/></svg><svg x="2480"><use xlink:href="#a"/><use xlink:href="#b" x="31.996" y="49.908"/><use xlink:href="#5"/><use xlink:href="#6" y="2.171"/><use xlink:href="#7" y="4.342"/><use xlink:href="#8" y="6.513"/><use xlink:href="#9" y="8.684"/><use xlink:href="#10" y="10.855"/><use xlink:href="#11" y="13.026"/><use xlink:href="#12" y="15.197"/><use xlink:href="#13" y="17.368"/><use xlink:href="#14" y="19.539"/><use xlink:href="#15" y="21.71"/><use xlink:href="#16" y="23.881"/><use xlink:href="#17" y="26.052"/><use xlink:href="#18" y="28.223"/><use xlink:href="#19" y="30.394"/><use xlink:href="#20" y="32.565"/><use xlink:href="#16" y="34.736"/><use xlink:href="#21" y="36.907"/><use xlink:href="#22" y="39.078"/><use xlink:href="#23" y="41.249"/><use xlink:href="#24" y="43.42"/><use xlink:href="#25" y="45.591"/><use xlink:href="#26" y="47.762"/><use xlink:href="#1" y="49.933"/></svg><svg x="2560"><use xlink:href="#a"/><use xlink:href="#b" x="32.996" y="49.908"/><use xlink:href="#5"/><use xlink:href="#6" y="2.171"/><use xlink:href="#7" y="4.342"/><use xlink:href="#8" y="6.513"/><use xlink:href="#9" y="8.684"/><use xlink:href="#10" y="10.855"/><use xlink:href="#11" y="13.026"/><use xlink:href="#12" y="15.197"/><use xlink:href="#13" y="17.368"/><use xlink:href="#14" y="19.539"/><use xlink:href="#15" y="21.71"/><use xlink:href="#16" y="23.881"/><use xlink:href="#17" y="26.052"/><use xlink:href="#18" y="28.223"/><use xlink:href="#19" y="30.394"/><use xlink:href="#20" y="32.565"/><use xlink:href="#16" y="34.736"/><use xlink:href="#21" y="36.907"/><use xlink:href="#22" y="39.078"/><use xlink:href="#23" y="41.249"/><use xlink:href="#24" y="43.42"/><use xlink:href="#25" y="45.591"/><use xlink:href="#26" y="47.762"/><use xlink:href="#2" y="49.933"/></svg><svg x="2640"><use xlink:href="#a"/><use xlink:href="#b" x="33.996" y="49.908"/><use xlink:href="#5"/><use xlink:href="#6" y="2.171"/><use xlink:href="#7" y="4.342"/><use xlink:href="#8" y="6.513"/><use xlink:href="#9" y="8.684"/><use xlink:href="#10" y="10.855"/><use xlink:href="#11" y="13.026"/><use xlink:href="#12" y="15.197"/><use xlink:href="#13" y="17.368"/><use xlink:href="#14" y="19.539"/><use xlink:href="#15" y="21.71"/><use xlink:href="#16" y="23.881"/><use xlink:href="#17" y="26.052"/><use xlink:href="#18" y="28.223"/><use xlink:href="#19" y="30.394"/><use xlink:href="#20" y="32.565"/><use xlink:href="#16" y="34.736"/><use xlink:href="#21" y="36.907"/><use xlink:href="#22" y="39.078"/><use xlink:href="#23" y="41.249"/><use xlink:href="#24" y="43.42"/><use xlink:href="#25" y="45.591"/><use xlink:href="#26" y="47.762"/><use xlink:href="#3" y="49.933"/></svg><svg x="2720"><use xlink:href="#a"/><use xlink:href="#b" x="34.996" y="49.908"/><use xlink:href="#5"/><use xlink:href="#6" y="2.171"/><use xlink:href="#7" y="4.342"/><use xlink:href="#8" y="6.513"/><use xlink:href="#9" y="8.684"/><use xlink:href="#10" y="10.855"/><use xlink:href="#11" y="13.026"/><use xlink:href="#12" y="15.197"/><use xlink:href="#13" y="17.368"/><use xlink:href="#14" y="19.539"/><use xlink:href="#15" y="21.71"/><use xlink:href="#16" y="23.881"/><use xlink:href="#17" y="26.052"/><use xlink:href="#18" y="28.223"/><use xlink:href="#19" y="30.394"/><use xlink:href="#20" y="32.565"/><use xlink:href="#16" y="34.736"/><use xlink:href="#21" y="36.907"/><use xlink:href="#22" y="39.078"/><use xlink:href="#23" y="41.249"/><use xlink:href="#24" y="43.42"/><use xlink:href="#25" y="45.591"/><use xlink:href="#26" y="47.762"/><use xlink:href="#4" y="49.933"/></svg><svg x="2800"><use xlink:href="#a"/><use xlink:href="#b" x="35.996" y="49.908"/><use xlink:href="#5"/><use xlink:href="#6" y="2.171"/><use xlink:href="#7" y="4.342"/><use xlink:href="#8" y="6.513"/><use xlink:href="#9" y="8.684"/><use xlink:href="#10" y="10.855"/><use xlink:href="#11" y="13.026"/><use xlink:href="#12" y="15.197"/><use xlink:href="#13" y="17.368"/><use xlink:href="#14" y="19.539"/><use xlink:href="#15" y="21.71"/><use xlink:href="#16" y="23.881"/><use xlink:href="#17" y="26.052"/><use xlink:href="#18" y="28.223"/><use xlink:href="#19" y="30.394"/><use xlink:href="#20" y="32.565"/><use xlink:href="#16" y="34.736"/><use xlink:href="#21" y="36.907"/><use xlink:href="#22" y="39.078"/><use xlink:href="#23" y="41.249"/><use xlink:href="#24" y="43.42"/><use xlink:href="#25" y="45.591"/><use xlink:href="#26" y="47.762"/><use xlink:href="#4" y="49.933"/></svg><svg x="2880"><use xlink:href="#a"/><use xlink:href="#b" x="70.996" y="49.908"/><use xlink:href="#5"/><use xlink:href="#6" y="2.171"/><use xlink:href="#7" y="4.342"/><use xlink:href="#8" y="6.513"/><use xlink:href="#9" y="8.684"/><use xlink:href="#10" y="10.855"/><use xlink:href="#11" y="13.026"/><use xlink:href="#12" y="15.197"/><use xlink:href="#13" y="17.368"/><use xlink:href="#14" y="19.539"/><use xlink:href="#15" y="21.71"/><use xlink:href="#16" y="23.881"/><use xlink:href="#17" y="26.052"/><use xlink:href="#18" y="28.223"/><use xlink:href="#19" y="30.394"/><use xlink:href="#20" y="32.565"/><use xlink:href="#16" y="34.736"/><use xlink:href="#21" y="36.907"/><use xlink:href="#22" y="39.078"/><use xlink:href="#23" y="41.249"/><use xlink:href="#24" y="43.42"/><use xlink:href="#25" y="45.591"/><use xlink:href="#26" y="47.762"/><use xlink:href="#27" y="49.933"/></svg><svg x="2960"><use xlink:href="#a"/><use xlink:href="#b" x="-.004" y="49.908"/><use xlink:href="#6"/><use xlink:href="#7" y="2.171"/><use xlink:href="#8" y="4.342"/><use xlink:href="#9" y="6.513"/><use xlink:href="#10" y="8.684"/><use xlink:href="#11" y="10.855"/><use xlink:href="#12" y="13.026"/><use xlink:href="#13" y="15.197"/><use xlink:href="#14" y="17.368"/><use xlink:href="#15" y="19.539"/><use xlink:href="#16" y="21.71"/><use xlink:href="#17" y="23.881"/><use xlink:href="#18" y="26.052"/><use xlink:href="#19" y="28.223"/><use xlink:href="#20" y="30.394"/><use xlink:href="#16" y="32.565"/><use xlink:href="#21" y="34.736"/><use xlink:href="#22" y="36.907"/><use xlink:href="#23" y="39.078"/><use xlink:href="#24" y="41.249"/><use xlink:href="#25" y="43.42"/><use xlink:href="#26" y="45.591"/><use xlink:href="#27" y="47.762"/></svg><svg x="3040"><use xlink:href="#a"/><use xlink:href="#b" x="-.004" y="49.908"/><use xlink:href="#19"/><use xlink:href="#20" y="2.171"/><use xlink:href="#16" y="4.342"/><use xlink:href="#21" y="6.513"/><use xlink:href="#22" y="8.684"/><use xlink:href="#23" y="10.855"/><use xlink:href="#24" y="13.026"/><use xlink:href="#25" y="15.197"/><use xlink:href="#26" y="17.368"/><use xlink:href="#27" y="19.539"/><use xlink:href="#28" y="21.71"/><use xlink:href="#29" y="26.052"/><use xlink:href="#30" y="30.394"/><use xlink:href="#31" y="32.565"/><use xlink:href="#32" y="34.736"/><use xlink:href="#25" y="36.907"/><use xlink:href="#33" y="41.249"/><use xlink:href="#34" y="43.42"/><use xlink:href="#35" y="45.591"/><use xlink:href="#36" y="47.762"/></svg><svg x="3120"><use xlink:href="#a"/><use xlink:href="#b" x="31.996" y="49.908"/><use xlink:href="#19"/><use xlink:href="#20" y="2.171"/><use xlink:href="#16" y="4.342"/><use xlink:href="#21" y="6.513"/><use xlink:href="#22" y="8.684"/><use xlink:href="#23" y="10.855"/><use xlink:href="#24" y="13.026"/><use xlink:href="#25" y="15.197"/><use xlink:href="#26" y="17.368"/><use xlink:href="#27" y="19.539"/><use xlink:href="#28" y="21.71"/><use xlink:href="#29" y="26.052"/><use xlink:href="#30" y="30.394"/><use xlink:href="#31" y="32.565"/><use xlink:href="#32" y="34.736"/><use xlink:href="#25" y="36.907"/><use xlink:href="#33" y="41.249"/><use xlink:href="#34" y="43.42"/><use xlink:href="#35" y="45.591"/><use xlink:href="#36" y="47.762"/><use xlink:href="#1" y="49.933"/></svg><svg x="3200"><use xlink:href="#a"/><use xlink:href="#b" x="32.996" y="49.908"/><use xlink:href="#19"/><use xlink:href="#20" y="2.171"/><use xlink:href="#16" y="4.342"/><use xlink:href="#21" y="6.513"/><use xlink:href="#22" y="8.684"/><use xlink:href="#23" y="10.855"/><use xlink:href="#24" y="13.026"/><use xlink:href="#25" y="15.197"/><use xlink:href="#26" y="17.368"/><use xlink:href="#27" y="19.539"/><use xlink:href="#28" y="21.71"/><use xlink:href="#29" y="26.052"/><use xlink:href="#30" y="30.394"/><use xlink:href="#31" y="32.565"/><use xlink:href="#32" y="34.736"/><use xlink:href="#25" y="36.907"/><use xlink:href="#33" y="41.249"/><use xlink:href="#34" y="43.42"/><use xlink:href="#35" y="45.591"/><use xlink:href="#36" y="47.762"/><text y="51.603" class="f">alex@</text><text x="5.01" y="51.603" class="g">:</text><text x="6.012" y="51.603" class="h">~/projects/schema-script</text><text x="30.06" y="51.603" class="g">$</text><text x="32.064" y="51.603" class="g">e</text></svg><svg x="3280"><use xlink:href="#a"/><use xlink:href="#b" x="33.996" y="49.908"/><use xlink:href="#19"/><use xlink:href="#20" y="2.171"/><use xlink:href="#16" y="4.342"/><use xlink:href="#21" y="6.513"/><use xlink:href="#22" y="8.684"/><use xlink:href="#23" y="10.855"/><use xlink:href="#24" y="13.026"/><use xlink:href="#25" y="15.197"/><use xlink:href="#26" y="17.368"/><use xlink:href="#27" y="19.539"/><use xlink:href="#28" y="21.71"/><use xlink:href="#29" y="26.052"/><use xlink:href="#30" y="30.394"/><use xlink:href="#31" y="32.565"/><use xlink:href="#32" y="34.736"/><use xlink:href="#25" y="36.907"/><use xlink:href="#33" y="41.249"/><use xlink:href="#34" y="43.42"/><use xlink:href="#35" y="45.591"/><use xlink:href="#36" y="47.762"/><text y="51.603" class="f">alex@</text><text x="5.01" y="51.603" class="g">:</text><text x="6.012" y="51.603" class="h">~/projects/schema-script</text><text x="30.06" y="51.603" class="g">$</text><text x="32.064" y="51.603" class="g">ex</text></svg><svg x="3360"><use xlink:href="#a"/><use xlink:href="#b" x="34.996" y="49.908"/><use xlink:href="#19"/><use xlink:href="#20" y="2.171"/><use xlink:href="#16" y="4.342"/><use xlink:href="#21" y="6.513"/><use xlink:href="#22" y="8.684"/><use xlink:href="#23" y="10.855"/><use xlink:href="#24" y="13.026"/><use xlink:href="#25" y="15.197"/><use xlink:href="#26" y="17.368"/><use xlink:href="#27" y="19.539"/><use xlink:href="#28" y="21.71"/><use xlink:href="#29" y="26.052"/><use xlink:href="#30" y="30.394"/><use xlink:href="#31" y="32.565"/><use xlink:href="#32" y="34.736"/><use xlink:href="#25" y="36.907"/><use xlink:href="#33" y="41.249"/><use xlink:href="#34" y="43.42"/><use xlink:href="#35" y="45.591"/><use xlink:href="#36" y="47.762"/><text y="51.603" class="f">alex@</text><text x="5.01" y="51.603" class="g">:</text><text x="6.012" y="51.603" class="h">~/projects/schema-script</text><text x="30.06" y="51.603" class="g">$</text><text x="32.064" y="51.603" class="g">exi</text></svg><svg x="3440"><use xlink:href="#a"/><use xlink:href="#b" x="35.996" y="49.908"/><use xlink:href="#19"/><use xlink:href="#20" y="2.171"/><use xlink:href="#16" y="4.342"/><use xlink:href="#21" y="6.513"/><use xlink:href="#22" y="8.684"/><use xlink:href="#23" y="10.855"/><use xlink:href="#24" y="13.026"/><use xlink:href="#25" y="15.197"/><use xlink:href="#26" y="17.368"/><use xlink:href="#27" y="19.539"/><use xlink:href="#28" y="21.71"/><use xlink:href="#29" y="26.052"/><use xlink:href="#30" y="30.394"/><use xlink:href="#31" y="32.565"/><use xlink:href="#32" y="34.736"/><use xlink:href="#25" y="36.907"/><use xlink:href="#33" y="41.249"/><use xlink:href="#34" y="43.42"/><use xlink:href="#35" y="45.591"/><use xlink:href="#36" y="47.762"/><use xlink:href="#37" y="49.933"/></svg><svg x="3520"><use xlink:href="#a"/><use xlink:href="#b" x="-.004" y="49.908"/><use xlink:href="#20"/><use xlink:href="#16" y="2.171"/><use xlink:href="#21" y="4.342"/><use xlink:href="#22" y="6.513"/><use xlink:href="#23" y="8.684"/><use xlink:href="#24" y="10.855"/><use xlink:href="#25" y="13.026"/><use xlink:href="#26" y="15.197"/><use xlink:href="#27" y="17.368"/><use xlink:href="#28" y="19.539"/><use xlink:href="#29" y="23.881"/><use xlink:href="#30" y="28.223"/><use xlink:href="#31" y="30.394"/><use xlink:href="#32" y="32.565"/><use xlink:href="#25" y="34.736"/><use xlink:href="#33" y="39.078"/><use xlink:href="#34" y="41.249"/><use xlink:href="#35" y="43.42"/><use xlink:href="#36" y="45.591"/><use xlink:href="#37" y="47.762"/></svg><svg x="3600"><use xlink:href="#a"/><use xlink:href="#b" x="-.004" y="49.908"/><use xlink:href="#16"/><use xlink:href="#21" y="2.171"/><use xlink:href="#22" y="4.342"/><use xlink:href="#23" y="6.513"/><use xlink:href="#24" y="8.684"/><use xlink:href="#25" y="10.855"/><use xlink:href="#26" y="13.026"/><use xlink:href="#27" y="15.197"/><use xlink:href="#28" y="17.368"/><use xlink:href="#29" y="21.71"/><use xlink:href="#30" y="26.052"/><use xlink:href="#31" y="28.223"/><use xlink:href="#32" y="30.394"/><use xlink:href="#25" y="32.565"/><use xlink:href="#33" y="36.907"/><use xlink:href="#34" y="39.078"/><use xlink:href="#35" y="41.249"/><use xlink:href="#36" y="43.42"/><use xlink:href="#37" y="45.591"/><text y="49.432" class="g">exit</text></svg></svg></g></g></svg></svg>